<?xml version="1.0" standalone="no"?>
<!DOCTYPE svg PUBLIC "-//W3C//DTD SVG 20010904//EN"
 "http://www.w3.org/TR/2001/REC-SVG-20010904/DTD/svg10.dtd">
<svg version="1.0" xmlns="http://www.w3.org/2000/svg"
 width="820.000000pt" height="873.000000pt" viewBox="0 0 820.000000 873.000000"
 preserveAspectRatio="xMidYMid meet">
<metadata>
Created by potrace 1.16, written by Peter Selinger 2001-2019
</metadata>
<g transform="translate(0.000000,873.000000) scale(0.100000,-0.100000)"
fill="#000000" stroke="none">
<path d="M4145 8317 c-16 -8 -349 -166 -740 -352 -390 -186 -813 -387 -940
-447 -126 -60 -238 -116 -248 -126 -49 -44 -47 13 -47 -1315 l0 -1244 -42 -6
c-28 -3 -348 -150 -908 -416 -1059 -504 -1069 -509 -1095 -544 -20 -28 -20
-41 -23 -1289 l-2 -1260 21 -38 c25 -44 -70 10 1097 -629 718 -394 828 -451
865 -451 37 0 161 65 986 518 594 326 951 527 963 543 11 14 23 43 28 65 6 22
10 546 10 1217 0 1161 0 1178 19 1167 11 -5 29 -10 40 -10 l21 0 0 -1177 c0
-745 4 -1191 10 -1214 5 -19 22 -47 37 -61 21 -19 1710 -952 1876 -1036 63
-32 100 -17 462 185 187 104 606 336 931 516 542 301 593 331 612 366 l22 39
0 1246 c0 1325 1 1286 -46 1327 -11 9 -183 100 -384 202 -201 102 -606 308
-900 458 -547 278 -574 289 -635 267 -20 -8 -20 -4 -17 1235 3 1365 5 1303
-56 1345 -68 47 -1817 924 -1850 928 -21 2 -50 -2 -67 -9z m354 -436 c191 -96
194 -98 170 -113 -13 -9 -193 -103 -399 -211 -206 -107 -536 -278 -732 -381
-197 -102 -363 -186 -369 -186 -13 0 -439 233 -439 240 0 6 1560 750 1570 749
3 0 92 -44 199 -98z m824 -420 c182 -94 333 -173 334 -178 1 -4 -93 -60 -210
-124 -1067 -586 -1265 -694 -1287 -702 -22 -8 -67 14 -350 169 -364 200 -369
203 -355 210 6 2 350 182 765 399 415 217 759 394 763 395 5 0 158 -76 340
-169z m-2560 -629 l157 -87 0 -231 c0 -173 3 -234 13 -241 10 -8 294 -144 335
-160 9 -4 12 42 12 211 0 119 3 216 7 216 3 0 165 -87 360 -192 l353 -193 0
-1057 c0 -582 -2 -1058 -5 -1058 -5 0 -962 523 -1397 763 l-148 82 0 1058 0
1059 78 -42 c42 -23 148 -81 235 -128z m-438 -2399 c107 -54 195 -100 195
-103 0 -8 -1505 -790 -1520 -790 -15 0 -440 231 -440 239 0 3 190 96 423 206
232 110 487 231 567 269 360 172 575 275 577 275 2 1 91 -43 198 -96z m4050 0
c107 -54 195 -100 195 -103 0 -5 -174 -97 -795 -421 -60 -31 -244 -127 -408
-213 -165 -86 -305 -156 -313 -156 -23 0 -444 234 -436 242 5 5 1532 737 1559
747 2 1 91 -43 198 -96z m-3114 -475 c186 -95 335 -176 331 -179 -24 -22
-1514 -830 -1525 -827 -21 5 -687 371 -687 378 1 6 1521 799 1534 800 5 0 161
-78 347 -172z m4051 1 c186 -95 336 -175 331 -180 -13 -13 -1505 -829 -1516
-829 -20 0 -696 375 -689 382 7 7 182 99 512 271 102 53 370 193 595 311 226
118 414 215 418 215 5 1 162 -76 349 -170z m-6687 -541 l225 -123 0 -231 c0
-173 3 -234 13 -242 23 -18 332 -160 340 -155 4 2 7 98 7 214 0 115 3 209 8
209 4 0 165 -87 357 -193 l350 -192 3 -1059 c2 -985 1 -1058 -15 -1052 -15 6
-317 171 -1195 653 l-338 186 0 1053 c0 724 3 1054 10 1054 6 0 112 -55 235
-122z m4055 -2 l225 -124 5 -236 5 -237 168 -80 c93 -43 170 -79 172 -79 3 0
6 98 7 218 l3 219 275 -152 c151 -83 314 -172 363 -199 l87 -47 0 -1055 c0
-731 -3 -1054 -11 -1054 -5 0 -180 93 -387 207 -207 113 -543 297 -747 409
-203 111 -380 210 -392 219 l-23 16 0 1049 c0 833 3 1050 13 1050 6 0 113 -56
237 -124z"/>
</g>
</svg>
